# xmcd
#
# Track frame offsets:
#	183
#	13745
#	24545
#	31393
#	42973
#	52890
#	64640
#	74083
#	79525
#	90678
#	99563
#	110398
#	119448
#
# Disc length: 1724 seconds
#
# Revision: 1
# Processed by: cddbd v1.5.2PL0 Copyright (c) Steve Scherf et al.
# Submitted via: audiograbber 1.83.01
#
DISCID=a606ba0d
DTITLE=Willie Nelson - Historic Reissue
DYEAR=1986
DGENRE=Country
TTITLE0=No tomorrow in sight
TTITLE1=A new way to cry
TTITLE2=Both ends of the candle
TTITLE3=I'll stay around
TTITLE4=Broken promises
TTITLE5=Happieness lives next door
TTITLE6=Let's pretend
TTITLE7=The ghost
TTITLE8=I'm going to lose a lot of teardrops
TTITLE9=Waiting time
TTITLE10=Go away
TTITLE11=Right from wrong
TTITLE12=Pride wings again
EXTD=Erstaufnahme: 1961
EXTT0=
EXTT1=
EXTT2=
EXTT3=
EXTT4=
EXTT5=
EXTT6=
EXTT7=
EXTT8=
EXTT9=
EXTT10=
EXTT11=
EXTT12=
PLAYORDER=
